<svg version="1" xmlns="http://www.w3.org/2000/svg" width="1365.333" height="1365.333" viewBox="0 0 1024.000000 1024.000000"><path d="M227 297.1c-9.6 1.9-17.6 7.8-21.3 15.9-3 6.4-3 18.8 0 25 4.7 9.8 14 15.6 26.5 16.6 21.3 1.8 36-10.1 36.1-29.1 0-16.5-11.6-28-29.3-28.9-4.1-.2-9.5 0-12 .5zM111.2 304.6c-22.8 4.7-36.5 20.4-38.7 44.3-.2 2.5-.5 26.4-.5 53.1-.1 50.4-.4 55.2-4.5 63-.9 1.8-2.3 4-3.1 4.7-2.8 2.8-11.5 6.3-17.1 6.9-12.8 1.3-18.5 4.3-22.1 11.6-4.5 9.1-2.2 21.7 4.9 27.1 3.7 2.8 8.4 4.2 16.9 5.2 9.8 1.2 17.4 5.6 20.8 12 3.8 7.2 4.1 12.6 4.2 63.5 0 27.2.3 51.1.6 53 .9 6.9 2.7 13.6 4.7 18 2.1 4.5 8.1 12.8 10.4 14.3.6.4 1.8 1.3 2.5 2 5.1 5 17.4 9.3 28.5 10.1 4.3.3 22 .7 39.3.8 29.2.2 36-.2 49.4-2.8 12-2.3 25.8-9.1 34.1-16.7 9.1-8.2 13.4-14.8 17.3-26.3 2.2-6.4 2.8-8.7 4-16.4.4-2.5.7-53.1.7-112.5v-108l-2.2-4.2c-5.7-10.6-20.4-15.5-34.8-11.5-7.3 2-14.4 8.4-16.3 14.8-.9 3.1-1.2 29.7-1.2 108.5-.1 67.2-.5 106.4-1.1 109.9-3.1 16.5-13.4 24-33.5 24.1-12.5.2-31.1-.7-36.1-1.5-5.4-1-9.8-5-11.2-10.2-.6-2.3-1.1-24.1-1.3-54.9l-.4-51-2.6-6.8c-4.8-12.6-13-21.7-24.3-27.2-3.8-1.9-6.2-3.5-5.2-3.5 3.5 0 12.2-5.3 17.7-10.9 8.1-8 13-18.7 14.6-31.6.1-1.1.3-23.6.4-50 .1-44.3.2-48.3 1.9-52.1 3-6.6 7.6-8.2 24.1-8.7 13.8-.4 17.5-1.3 22.4-5.6 3.4-3 5.6-8.7 5.6-14.8-.1-10.4-5.1-17.4-14.5-20.1-5.2-1.5-46.5-1.2-54.3.4zM808.6 305.1c-2.7 1-5.9 2.8-7.2 4-6.3 6-7.3 20.8-1.7 27.7 5.1 6.3 8.9 7.5 24.2 7.9 15.5.4 20.2 2 23.6 7.5 2.2 3.7 2.2 3 2.8 72.3.4 41.2.5 41.9 7.8 54.1 5.4 9 18.6 19.4 24.6 19.4 1 0-1.4 1.6-5.2 3.4-11.5 5.6-19.9 15.2-24.8 28.4-1.9 5.4-2.1 7.9-2.4 44.2-.5 64.4-.6 67.1-2.6 70.7-3.1 5.8-8.1 7.4-23.1 7.8-14.1.3-18.8 1.5-23.2 5.9-5.1 5-6.8 14.3-4.2 22.8 1.5 5 7.4 10.2 13.4 11.7 6.6 1.7 46 1.3 54.9-.6 14.7-3.1 27-12.2 32.8-24.5 5.2-11 5.6-16.1 5.7-69.8 0-27.2.3-50.9.5-52.5 2.8-16.7 9.2-23.3 24.4-25 10.9-1.2 13.9-2.2 17.9-5.9 9.1-8.2 8.5-25.7-1.2-33.1-2.2-1.7-5.6-2.9-9.7-3.6-18.7-3-24.2-5.8-28.3-14.4-3.1-6.5-3.5-13.2-3.6-62.5 0-27.2-.2-50.6-.5-52l-.9-6.3c-2.1-14.1-12-27.9-24.2-33.6-9.9-4.7-14.6-5.4-40.4-5.6-21.8-.3-25-.1-29.4 1.6zM436.8 393.5c-.2.2-3 .6-6.2 1-19.5 2.2-40.5 14.5-51.1 30-2.1 3-4 5.5-4.2 5.5-.1 0-.2-3.5-.2-7.8.2-16.8-9-27-24.7-27.7-12.6-.5-21.3 3.6-26.4 12.6l-2.5 4.4-.3 132.1c-.2 127.3-.2 132.3 1.6 136.5 2.7 6.2 6.2 10 11.8 12.9 4.2 2.1 6.3 2.5 14.4 2.5 8-.1 10.2-.4 14-2.4 5.5-2.8 8.6-6.2 11.2-12 1.9-4.1 2-6.8 2-51.7V582l3 4.2c14.1 19.9 35.1 30.5 61.8 31.3 14.9.4 23.1-.6 34.8-4.4 35.1-11.5 58.2-42.9 63.9-87.1.9-7.3.9-30.9 0-39-3.7-31.3-18.7-59.9-39.9-75.8-9.3-7.1-23.9-13.8-33.8-15.7-1.4-.3-3.8-.8-5.4-1.1-2.8-.6-23.3-1.4-23.8-.9zm10.5 44.9c7.9 2.7 12.8 5.6 18.5 10.9 12.6 12 19 29.8 19.6 54.4 1 38.9-15 65.1-42.9 70.2-35.3 6.5-61-13.2-66.2-50.9-.9-6.9-.9-29 .1-35 2.6-16.5 8.2-28.7 17-37.5 7-7 12.3-10 22.1-12.5 8.6-2.2 24.7-2 31.8.4zM665.7 393.6c-.2.2-3 .6-6.2.9-17.8 1.8-40.8 8.2-55.2 15.2-14.3 7-19.6 14-19.6 25.4.1 7.4 1.9 12 6.6 16.2 6 5.4 12.9 5.5 24.2.3 9.2-4.3 33.2-12.5 41-14 1.7-.4 4.1-.9 5.5-1.2 1.4-.3 7-.6 12.5-.8 28.8-.8 40.7 11 41.4 41.1l.3 10.3-16.9.1c-16.4 0-22 .2-37.3 1.4-11 .8-15.5 1.4-25 3.1-28.9 5.4-45.1 14.7-53.1 30.7-1.7 3.3-3.2 6.7-3.4 7.6-.2.9-.8 3.6-1.4 6.1-1.8 7.6-.8 26.5 1.7 34 8.3 24.3 31.7 42.8 59.2 46.8 5.8.9 23.2.9 29 0 17.8-2.6 35.9-14.8 43.8-29.6l2.9-5.4.5 9.1c.5 7.8 1 9.8 3.5 13.9 6.1 9.8 17.7 13.8 31.3 10.7 7.7-1.7 15-9.5 16.7-17.5 1.1-5.5 1-124.2-.2-132-.4-3-.9-6.4-1-7.5-.1-1.1-.5-3.4-.9-5-4.9-20.7-14.5-36.1-28.3-45.6-8.8-6.1-23.5-11.3-37.8-13.5-4.8-.7-33.2-1.4-33.8-.8zm50.2 130.1c-.1 10.4-2.2 20.2-5.9 28.1-3.7 7.9-13.2 17.6-21 21.3-13.9 6.8-31.4 6.6-42.7-.3-16.4-9.9-19.7-35.7-5.9-46.1 6.3-4.9 18.6-8.4 33-9.3 4.5-.4 8.2-.7 8.3-.8.1 0 7.8-.3 17.3-.4l17.1-.4-.2 7.9z"/></svg>