<?xml version="1.0" standalone="no"?>
<!DOCTYPE svg PUBLIC "-//W3C//DTD SVG 20010904//EN"
 "http://www.w3.org/TR/2001/REC-SVG-20010904/DTD/svg10.dtd">
<svg version="1.0" xmlns="http://www.w3.org/2000/svg"
 width="1024.000000pt" height="1024.000000pt" viewBox="0 0 1024.000000 1024.000000"
 preserveAspectRatio="xMidYMid meet">
<metadata>
Created by potrace 1.11, written by Peter Selinger 2001-2013
</metadata>
<g transform="translate(0.000000,1024.000000) scale(0.100000,-0.100000)"
fill="#000000" stroke="none">
<path d="M2270 7269 c-96 -19 -176 -78 -213 -159 -30 -64 -30 -188 0 -250 47
-98 140 -156 265 -166 213 -18 360 101 361 291 0 165 -116 280 -293 289 -41 2
-95 0 -120 -5z"/>
<path d="M1112 7194 c-228 -47 -365 -204 -387 -443 -2 -25 -5 -264 -5 -531 -1
-504 -4 -552 -45 -630 -9 -18 -23 -40 -31 -47 -28 -28 -115 -63 -171 -69 -128
-13 -185 -43 -221 -116 -45 -91 -22 -217 49 -271 37 -28 84 -42 169 -52 98
-12 174 -56 208 -120 38 -72 41 -126 42 -635 0 -272 3 -511 6 -530 9 -69 27
-136 47 -180 21 -45 81 -128 104 -143 6 -4 18 -13 25 -20 51 -50 174 -93 285
-101 43 -3 220 -7 393 -8 292 -2 360 2 494 28 120 23 258 91 341 167 91 82
134 148 173 263 22 64 28 87 40 164 4 25 7 531 7 1125 l0 1080 -22 42 c-57
106 -204 155 -348 115 -73 -20 -144 -84 -163 -148 -9 -31 -12 -297 -12 -1085
-1 -672 -5 -1064 -11 -1099 -31 -165 -134 -240 -335 -241 -125 -2 -311 7 -361
15 -54 10 -98 50 -112 102 -6 23 -11 241 -13 549 l-4 510 -26 68 c-48 126
-130 217 -243 272 -38 19 -62 35 -52 35 35 0 122 53 177 109 81 80 130 187
146 316 1 11 3 236 4 500 1 443 2 483 19 521 30 66 76 82 241 87 138 4 175 13
224 56 34 30 56 87 56 148 -1 104 -51 174 -145 201 -52 15 -465 12 -543 -4z"/>
<path d="M8086 7189 c-27 -10 -59 -28 -72 -40 -63 -60 -73 -208 -17 -277 51
-63 89 -75 242 -79 155 -4 202 -20 236 -75 22 -37 22 -30 28 -723 4 -412 5
-419 78 -541 54 -90 186 -194 246 -194 10 0 -14 -16 -52 -34 -115 -56 -199
-152 -248 -284 -19 -54 -21 -79 -24 -442 -5 -644 -6 -671 -26 -707 -31 -58
-81 -74 -231 -78 -141 -3 -188 -15 -232 -59 -51 -50 -68 -143 -42 -228 15 -50
74 -102 134 -117 66 -17 460 -13 549 6 147 31 270 122 328 245 52 110 56 161
57 698 0 272 3 509 5 525 28 167 92 233 244 250 109 12 139 22 179 59 91 82
85 257 -12 331 -22 17 -56 29 -97 36 -187 30 -242 58 -283 144 -31 65 -35 132
-36 625 0 272 -2 506 -5 520 -2 14 -6 42 -9 63 -21 141 -120 279 -242 336 -99
47 -146 54 -404 56 -218 3 -250 1 -294 -16z"/>
<path d="M4368 6305 c-2 -2 -30 -6 -62 -10 -195 -22 -405 -145 -511 -300 -21
-30 -40 -55 -42 -55 -1 0 -2 35 -2 78 2 168 -90 270 -247 277 -126 5 -213 -36
-264 -126 l-25 -44 -3 -1321 c-2 -1273 -2 -1323 16 -1365 27 -62 62 -100 118
-129 42 -21 63 -25 144 -25 80 1 102 4 140 24 55 28 86 62 112 120 19 41 20
68 20 517 l0 474 30 -42 c141 -199 351 -305 618 -313 149 -4 231 6 348 44 351
115 582 429 639 871 9 73 9 309 0 390 -37 313 -187 599 -399 758 -93 71 -239
138 -338 157 -14 3 -38 8 -54 11 -28 6 -233 14 -238 9z m105 -449 c79 -27 128
-56 185 -109 126 -120 190 -298 196 -544 10 -389 -150 -651 -429 -702 -353
-65 -610 132 -662 509 -9 69 -9 290 1 350 26 165 82 287 170 375 70 70 123
100 221 125 86 22 247 20 318 -4z"/>
<path d="M6657 6304 c-2 -2 -30 -6 -62 -9 -178 -18 -408 -82 -552 -152 -143
-70 -196 -140 -196 -254 1 -74 19 -120 66 -162 60 -54 129 -55 242 -3 92 43
332 125 410 140 17 4 41 9 55 12 14 3 70 6 125 8 288 8 407 -110 414 -411 l3
-103 -169 -1 c-164 0 -220 -2 -373 -14 -110 -8 -155 -14 -250 -31 -289 -54
-451 -147 -531 -307 -17 -33 -32 -67 -34 -76 -2 -9 -8 -36 -14 -61 -18 -76 -8
-265 17 -340 83 -243 317 -428 592 -468 58 -9 232 -9 290 0 178 26 359 148
438 296 l29 54 5 -91 c5 -78 10 -98 35 -139 61 -98 177 -138 313 -107 77 17
150 95 167 175 11 55 10 1242 -2 1320 -4 30 -9 64 -10 75 -1 11 -5 34 -9 50
-49 207 -145 361 -283 456 -88 61 -235 113 -378 135 -48 7 -332 14 -338 8z
m502 -1301 c-1 -104 -22 -202 -59 -281 -37 -79 -132 -176 -210 -213 -139 -68
-314 -66 -427 3 -164 99 -197 357 -59 461 63 49 186 84 330 93 45 4 82 7 83 8
1 0 78 3 173 4 l171 4 -2 -79z"/>
</g>
</svg>
